# Blender v2.79 (sub 0) OBJ File: 'norvedem.blend'
# www.blender.org
mtllib norvedem-garland.mtl
g norvedem-garland
v 19.987724 3.900314 19.476912
v 23.210052 12.174530 0.310425
v -22.737995 -3.860836 8.943232
v -19.515665 4.413379 -10.223262
v -6.918458 3.869097 14.939888
v -3.696130 12.143312 -4.226600
v -20.638889 -8.501520 15.693367
v -17.346113 2.860581 -3.053648
v -67.000114 -5.764414 9.209246
v -63.707344 5.597688 -9.537771
v -48.562126 -2.259103 14.572224
v -45.269352 9.103000 -4.174788
v 85.350624 0.694960 12.948968
v 87.035713 8.283280 -4.974759
v 44.305443 -0.923146 8.405073
v 45.990528 6.665176 -9.518658
v 60.359360 4.081991 12.033389
v 62.044453 11.670312 -5.890349
v 55.884159 -0.000020 2.348217
v 52.158642 -0.000020 -16.852928
v 15.266355 -0.000022 10.229093
v 11.540842 -0.000020 -8.972043
v 31.521379 4.738582 7.075216
v 27.795876 4.738579 -12.125935
v -48.809803 2.485380 1.113824
v -52.731468 -9.878668 -18.720911
v -98.229485 5.581929 8.954687
v -102.151154 -6.782116 -10.880044
v -78.623672 9.228225 2.805358
v -82.545334 -3.135822 -17.029377
v 91.983963 11.568951 -0.416058
v 86.699600 -1.032221 -27.123463
v 46.065323 4.844705 11.842127
v 40.780960 -7.756465 -14.865274
v 60.590736 10.103955 6.486671
v 75.695908 13.122455 2.073748
v 70.411530 0.521283 -24.633656
v 55.306374 -2.497213 -20.220728
v -22.570028 10.993999 -4.284227
v -32.346870 -3.745776 -28.515446
v -66.150749 7.369873 15.504307
v -75.927582 -7.369903 -8.726912
v -52.925980 12.428329 7.091326
v -38.332077 14.213343 0.117147
v -48.108906 -0.526437 -24.114073
v -62.702816 -2.311447 -17.139894
v -45.861137 -2.031663 21.316074
v -44.027172 5.863531 -7.568213
v -93.690544 -3.947604 17.755503
v -91.856560 3.947586 -11.128786
v -78.158508 1.031435 20.102650
v -61.959465 2.497226 21.531851
v -60.125488 10.392422 -7.352438
v -76.324539 8.926624 -8.781635
v 101.597618 -5.644399 19.233555
v 104.543259 0.438400 -9.995234
v 53.858780 -3.041436 14.964188
v 56.804436 3.041363 -14.264607
v 69.888863 -0.618298 17.083961
v 85.831963 -0.638588 18.686468
v 88.777618 5.444211 -10.542321
v 72.834518 5.464500 -12.144831
v 81.644882 -1.384522 19.756990
v 82.381439 17.663544 -3.408241
v 35.051670 -9.524064 11.582619
v 35.788231 9.524003 -11.582619
v 49.778088 -4.274025 16.367811
v 65.101967 -0.907615 19.623142
v 65.838516 18.140453 -3.542099
v 50.514645 14.774042 -6.797433
v 49.793694 -8.937805 20.319996
v 54.320587 8.783481 -3.459475
v 2.372885 -5.971155 13.503331
v 6.899786 11.750134 -10.276123
v 18.062353 -4.252239 17.771133
v 33.783142 -5.215145 20.046320
v 38.310043 12.506143 -3.733145
v 22.589256 13.469049 -6.008323
v 109.517815 5.118856 6.135136
v 104.550644 -13.635084 -16.747526
v 62.327736 10.521434 11.951006
v 57.360542 -8.232507 -10.931664
v 78.046509 11.667522 7.599592
v 93.622688 9.182976 6.254703
v 88.655510 -9.570962 -16.627964
v 73.079315 -7.086413 -15.283075
v 4.036213 6.879668 12.662935
v 1.721320 11.779099 -16.843611
v -42.353485 -2.449723 14.753283
v -44.668381 2.449706 -14.753273
v -27.691757 4.786256 14.804512
v -12.378586 8.857811 14.279199
v -14.693478 13.757244 -15.227350
v -30.006657 9.685686 -14.702040
v 68.330177 13.239882 -5.965811
v 60.282368 -2.974582 -29.889095
v 25.101236 8.017429 12.116056
v 17.053423 -8.197037 -11.807227
v 36.927776 15.559505 3.025815
v 52.023720 17.181623 -3.151901
v 43.975918 0.967164 -27.075184
v 28.879961 -0.654960 -20.897472
v 14.809423 16.029778 6.078082
v 14.880906 -3.677072 -16.541260
v -32.503189 9.853413 11.309660
v -32.431705 -9.853437 -11.309687
v -17.299833 14.412697 7.385480
v -1.675099 17.115349 5.080194
v -1.603605 -2.591500 -17.539146
v -17.228350 -5.294155 -15.233862
v 39.885078 9.883443 2.402496
v 33.421543 3.511769 -26.191631
v -6.132968 3.185815 14.297056
v -12.596509 -3.185862 -14.297065
v 8.581616 8.673626 9.748054
v 23.760084 11.744388 5.632782
v 17.296541 5.372709 -22.961346
v 2.118062 2.301951 -18.846073
v -3.546187 17.080343 -1.417740
v -6.042397 -4.105623 -22.510952
v -49.690842 10.890993 10.259682
v -52.187050 -10.294967 -10.833531
v -35.192688 15.297261 4.118290
v -20.038610 17.963728 -0.353267
v -22.534811 -3.222233 -21.446476
v -37.688900 -5.888705 -16.974920
v -56.140907 1.121807 21.229816
v -51.957661 10.185321 -7.060695
v -102.091621 -4.531762 12.623954
v -97.908371 4.531750 -15.666556
v -88.678291 4.248202 17.420208
v -72.531342 4.810995 19.988119
v -68.348099 13.874507 -8.302391
v -84.495049 13.311714 -10.870302
v 10.749302 8.301667 -8.618646
v 7.495656 4.527437 -17.239424
v -0.804117 6.644144 -3.532489
v -4.057766 2.869911 -12.153270
v 5.574781 8.995481 -6.969436
v 2.321135 5.221247 -15.590217
v 14.710179 -2.149234 10.315476
v 18.871284 6.470982 7.572119
v 4.844546 0.159524 2.605949
v 9.005657 8.779738 -0.137402
v 9.917192 -0.492362 8.251755
v 14.078301 8.127851 5.508398
v 80.860085 0.627787 -7.440692
v 75.721069 -4.885221 -13.948089
v 70.194633 2.756503 -0.821424
v 65.055641 -2.756505 -7.328815
v 76.181488 2.735946 -5.531931
v 71.042480 -2.777064 -12.039322
v 65.280182 8.082589 -13.086250
v 60.847885 2.581207 -20.103268
v 56.426575 4.485387 -4.673659
v 51.994270 -1.015993 -11.690676
v 60.770271 7.775697 -9.996978
v 56.337990 2.274320 -17.013996
v 45.351139 9.985458 4.646404
v 48.463802 8.661689 -4.718837
v 33.478184 7.040884 1.116487
v 36.590843 5.717113 -8.248754
v 40.170143 10.218752 2.891465
v 43.282806 8.894981 -6.473783
v -16.413971 9.959605 -7.694250
v -15.982704 1.504934 -12.936528
v -26.236784 5.335149 -1.044093
v -25.805515 -3.119519 -6.286369
v -21.430811 8.624943 -5.954450
v -20.999544 0.170274 -11.196725
v -37.160732 2.314643 -12.753151
v -43.085037 -3.918903 -17.772552
v -45.478432 2.458907 -3.115062
v -51.402748 -3.774648 -8.134449
v -41.304581 3.548016 -9.393951
v -47.228889 -2.685534 -14.413346
v -56.576626 -0.365937 12.387622
v -49.496719 1.272271 5.580266
v -65.279350 4.597050 4.530821
v -58.199440 6.235256 -2.276532
v -59.926552 3.050010 9.725632
v -52.846642 4.688219 2.918277
v -75.222900 -5.069531 9.806780
v -71.313904 2.078182 4.081509
v -86.929367 -1.355504 6.450852
v -83.020386 5.792210 0.725572
v -80.095444 -2.582325 9.585164
v -76.186440 4.565386 3.859884
v -63.411064 7.739502 12.660856
v -60.633667 7.031232 11.517735
v -66.794960 6.018594 5.505283
v -64.017555 5.310328 4.362167
v 91.751167 0.953427 -6.450737
v 90.768829 -0.635087 -8.907157
v 84.499977 0.037238 -2.958530
v 83.517662 -1.551262 -5.414951
v 70.365860 8.634591 -8.111999
v 70.005333 7.856462 -11.076260
v 63.382103 4.954138 -6.296468
v 63.021595 4.176018 -9.260726
v 60.897816 6.476993 13.725993
v 63.751476 6.702417 12.573608
v 57.875687 6.322995 6.212172
v 60.729347 6.548443 5.059788
v 52.635117 9.197034 -3.239198
v 50.075195 9.161256 -4.961927
v 49.467915 3.512973 1.585185
v 46.907982 3.477198 -0.137551
v 85.223366 5.935627 6.018859
v 85.941887 6.750557 3.130621
v 77.429619 5.307636 3.902811
v 78.148140 6.122583 1.014584
v 29.137495 8.833200 -12.668663
v 26.537987 9.105174 -14.309052
v 24.777451 8.090794 -5.882414
v 22.177946 8.362765 -7.522794
v 30.112982 3.608450 10.751904
v 32.764122 3.910291 9.201842
v 25.979141 5.525948 4.054964
v 28.630257 5.827774 2.504903
v 19.771458 13.282609 6.201540
v 20.420328 13.240094 3.185011
v 12.681411 9.653123 4.727580
v 13.330280 9.610619 1.711057
v 11.447164 7.974394 -7.650065
v 11.006596 8.004962 -10.704112
v 4.386550 4.127109 -6.670013
v 3.945979 4.157679 -9.724063
v 1.035370 12.294175 4.236703
v 3.136324 11.778926 2.036076
v -4.881369 10.458809 -0.982308
v -2.780414 9.943559 -3.182934
v -8.456130 2.439909 -12.455853
v -10.249471 0.723877 -14.289270
v -14.173567 2.286533 -6.719837
v -15.966908 0.570494 -8.553256
v -20.130999 5.341837 -17.283171
v -22.842358 4.353058 -18.375462
v -23.172300 5.388007 -9.775657
v -25.883663 4.399232 -10.867950
v -33.002735 -0.380851 12.370193
v -30.858234 1.111230 10.727919
v -38.170364 0.211704 6.160605
v -36.025856 1.703781 4.518336
v -37.319893 6.803253 -14.373985
v -39.798512 6.161626 -16.096493
v -42.111824 8.170375 -7.987842
v -44.590443 7.528749 -9.710351
v -64.531776 6.242323 -5.208722
v -66.820557 5.386726 -7.093328
v -69.013893 4.122706 1.196927
v -71.302673 3.267112 -0.687677
v -93.903015 4.046257 -2.122513
v -92.408218 3.121437 -4.658757
v -99.311066 -1.897393 -3.142581
v -97.816261 -2.822213 -5.678825
vt 0.442013 0.995612
vt 0.442013 0.655561
vt 0.741445 0.655561
vt 0.741445 0.995612
vt 0.002754 0.655561
vt 0.002754 0.995612
vt 0.442013 0.995612
vt 0.442013 0.655561
vt 0.741445 0.655561
vt 0.741445 0.995612
vt 0.002754 0.655561
vt 0.002754 0.995612
vt 0.442013 0.995612
vt 0.442013 0.655561
vt 0.741445 0.655561
vt 0.741445 0.995612
vt 0.002754 0.655561
vt 0.002754 0.995612
vt 0.442013 0.995612
vt 0.442013 0.655561
vt 0.741445 0.655561
vt 0.741445 0.995612
vt 0.002754 0.655561
vt 0.002754 0.995612
vt 0.442013 0.995612
vt 0.442013 0.655561
vt 0.741445 0.655561
vt 0.741445 0.995612
vt 0.002754 0.655561
vt 0.002754 0.995612
vt 0.444853 0.214329
vt 0.052486 0.214329
vt 0.052486 0.005066
vt 0.444853 0.005066
vt 0.444853 0.632854
vt 0.052486 0.632854
vt 0.052486 0.423591
vt 0.444853 0.423591
vt 0.444853 0.214329
vt 0.052486 0.214329
vt 0.052486 0.005066
vt 0.444853 0.005066
vt 0.444853 0.632854
vt 0.052486 0.632854
vt 0.052486 0.423591
vt 0.444853 0.423591
vt 0.444853 0.214329
vt 0.052486 0.214329
vt 0.052486 0.005066
vt 0.444853 0.005066
vt 0.444853 0.632854
vt 0.052486 0.632854
vt 0.052486 0.423591
vt 0.444853 0.423591
vt 0.444853 0.214329
vt 0.052486 0.214329
vt 0.052486 0.005066
vt 0.444853 0.005066
vt 0.444853 0.632854
vt 0.052486 0.632854
vt 0.052486 0.423591
vt 0.444853 0.423591
vt 0.444853 0.214329
vt 0.052486 0.214329
vt 0.052486 0.005066
vt 0.444853 0.005066
vt 0.444853 0.632854
vt 0.052486 0.632854
vt 0.052486 0.423591
vt 0.444853 0.423591
vt 0.444853 0.214329
vt 0.052486 0.214329
vt 0.052486 0.005066
vt 0.444853 0.005066
vt 0.444853 0.632854
vt 0.052486 0.632854
vt 0.052486 0.423591
vt 0.444853 0.423591
vt 0.444853 0.214329
vt 0.052486 0.214329
vt 0.052486 0.005066
vt 0.444853 0.005066
vt 0.444853 0.632854
vt 0.052486 0.632854
vt 0.052486 0.423591
vt 0.444853 0.423591
vt 0.444853 0.214329
vt 0.052486 0.214329
vt 0.052486 0.005066
vt 0.444853 0.005066
vt 0.444853 0.632854
vt 0.052486 0.632854
vt 0.052486 0.423591
vt 0.444853 0.423591
vt 0.444853 0.214329
vt 0.052486 0.214329
vt 0.052486 0.005066
vt 0.444853 0.005066
vt 0.444853 0.632854
vt 0.052486 0.632854
vt 0.052486 0.423591
vt 0.444853 0.423591
vt 0.444853 0.214329
vt 0.052486 0.214329
vt 0.052486 0.005066
vt 0.444853 0.005066
vt 0.444853 0.632854
vt 0.052486 0.632854
vt 0.052486 0.423591
vt 0.444853 0.423591
vt 0.444853 0.214329
vt 0.052486 0.214329
vt 0.052486 0.005066
vt 0.444853 0.005066
vt 0.444853 0.632854
vt 0.052486 0.632854
vt 0.052486 0.423591
vt 0.444853 0.423591
vt 0.444853 0.214329
vt 0.052486 0.214329
vt 0.052486 0.005066
vt 0.444853 0.005066
vt 0.444853 0.632854
vt 0.052486 0.632854
vt 0.052486 0.423591
vt 0.444853 0.423591
vt 0.444853 0.214329
vt 0.052486 0.214329
vt 0.052486 0.005066
vt 0.444853 0.005066
vt 0.444853 0.632854
vt 0.052486 0.632854
vt 0.052486 0.423591
vt 0.444853 0.423591
vt 0.976571 0.650665
vt 0.485586 0.650665
vt 0.485586 0.380693
vt 0.976571 0.380693
vt 0.485586 0.005066
vt 0.976571 0.005066
vt 0.976571 0.650665
vt 0.485586 0.650665
vt 0.485586 0.380693
vt 0.976571 0.380693
vt 0.485586 0.005066
vt 0.976571 0.005066
vt 0.976571 0.650665
vt 0.485586 0.650665
vt 0.485586 0.380693
vt 0.976571 0.380693
vt 0.485586 0.005066
vt 0.976571 0.005066
vt 0.976571 0.650665
vt 0.485586 0.650665
vt 0.485586 0.380693
vt 0.976571 0.380693
vt 0.485586 0.005066
vt 0.976571 0.005066
vt 0.976571 0.650665
vt 0.485586 0.650665
vt 0.485586 0.380693
vt 0.976571 0.380693
vt 0.485586 0.005066
vt 0.976571 0.005066
vt 0.976571 0.650665
vt 0.485586 0.650665
vt 0.485586 0.380693
vt 0.976571 0.380693
vt 0.485586 0.005066
vt 0.976571 0.005066
vt 0.976571 0.650665
vt 0.485586 0.650665
vt 0.485586 0.380693
vt 0.976571 0.380693
vt 0.485586 0.005066
vt 0.976571 0.005066
vt 0.976571 0.650665
vt 0.485586 0.650665
vt 0.485586 0.380693
vt 0.976571 0.380693
vt 0.485586 0.005066
vt 0.976571 0.005066
vt 0.976571 0.650665
vt 0.485586 0.650665
vt 0.485586 0.380693
vt 0.976571 0.380693
vt 0.485586 0.005066
vt 0.976571 0.005066
vt 0.821994 0.943177
vt 0.821994 0.668520
vt 0.926625 0.668520
vt 0.926625 0.943177
vt 0.821994 0.943177
vt 0.821994 0.668520
vt 0.926625 0.668520
vt 0.926625 0.943177
vt 0.821994 0.943177
vt 0.821994 0.668520
vt 0.926625 0.668520
vt 0.926625 0.943177
vt 0.821994 0.943177
vt 0.821994 0.668520
vt 0.926625 0.668520
vt 0.926625 0.943177
vt 0.821994 0.943177
vt 0.821994 0.668520
vt 0.926625 0.668520
vt 0.926625 0.943177
vt 0.821994 0.943177
vt 0.821994 0.668520
vt 0.926625 0.668520
vt 0.926625 0.943177
vt 0.821994 0.943177
vt 0.821994 0.668520
vt 0.926625 0.668520
vt 0.926625 0.943177
vt 0.821994 0.943177
vt 0.821994 0.668520
vt 0.926625 0.668520
vt 0.926625 0.943177
vt 0.821994 0.943177
vt 0.821994 0.668520
vt 0.926625 0.668520
vt 0.926625 0.943177
vt 0.821994 0.943177
vt 0.821994 0.668520
vt 0.926625 0.668520
vt 0.926625 0.943177
vt 0.821994 0.943177
vt 0.821994 0.668520
vt 0.926625 0.668520
vt 0.926625 0.943177
vt 0.821994 0.943177
vt 0.821994 0.668520
vt 0.926625 0.668520
vt 0.926625 0.943177
vt 0.821994 0.943177
vt 0.821994 0.668520
vt 0.926625 0.668520
vt 0.926625 0.943177
vt 0.821994 0.943177
vt 0.821994 0.668520
vt 0.926625 0.668520
vt 0.926625 0.943177
vt 0.821994 0.943177
vt 0.821994 0.668520
vt 0.926625 0.668520
vt 0.926625 0.943177
vt 0.821994 0.943177
vt 0.821994 0.668520
vt 0.926625 0.668520
vt 0.926625 0.943177
vt 0.821994 0.943177
vt 0.821994 0.668520
vt 0.926625 0.668520
vt 0.926625 0.943177
vn -0.2927 0.8948 0.3371
vn -0.5033 0.8209 0.2697
vn -0.0662 0.9201 0.3861
vn -0.0660 0.8584 0.5087
vn -0.2927 0.8397 0.4575
vn 0.1643 0.8305 0.5322
vn -0.1232 0.9179 0.3770
vn -0.3488 0.8743 0.3374
vn 0.1090 0.9116 0.3962
vn -0.0442 0.9990 0.0085
vn -0.2701 0.9614 0.0524
vn 0.1841 0.9822 -0.0357
vn -0.0742 0.8528 -0.5169
vn -0.2999 0.8350 -0.4612
vn 0.1555 0.8242 -0.5445
vn -0.3547 0.8707 -0.3406
vn -0.4239 0.8486 -0.3165
vn 0.0204 0.9026 -0.4299
vn -0.1331 0.9062 -0.4012
vn -0.4018 0.8453 -0.3521
vn -0.4990 0.8150 -0.2944
vn 0.0262 0.8493 -0.5272
vn -0.1386 0.8699 -0.4733
vn -0.2203 0.9444 0.2441
vn -0.3284 0.9162 0.2296
vn 0.2641 0.9260 0.2698
vn 0.0787 0.9603 0.2675
vn -0.0951 0.9764 0.1936
vn -0.1707 0.9679 0.1842
vn 0.2880 0.9313 0.2228
vn 0.1361 0.9671 0.2150
vn -0.3635 0.7252 0.5847
vn -0.4338 0.7027 0.5640
vn 0.0171 0.7720 0.6353
vn -0.1387 0.7671 0.6263
vn -0.1377 0.8065 0.5748
vn -0.2375 0.8000 0.5510
vn 0.1697 0.7744 0.6094
vn 0.0669 0.7939 0.6044
vn -0.0774 0.7793 -0.6218
vn -0.2198 0.7773 -0.5894
vn 0.1844 0.7402 -0.6466
vn 0.1257 0.7537 -0.6450
vn -0.3432 0.9218 0.1800
vn -0.4358 0.8817 0.1806
vn 0.1330 0.9793 0.1522
vn -0.0581 0.9841 0.1679
vn -0.4802 0.7926 -0.3757
vn -0.6537 0.7101 -0.2614
vn 0.0954 0.8088 -0.5802
vn -0.0955 0.8386 -0.5363
vn -0.2956 0.7198 -0.6280
vn -0.3679 0.7005 -0.6115
vn 0.0891 0.7511 -0.6541
vn -0.0671 0.7522 -0.6555
vn -0.3090 0.9407 -0.1397
vn -0.3790 0.9177 -0.1188
vn 0.0657 0.9707 -0.2311
vn -0.0868 0.9763 -0.1979
vn -0.3855 0.6734 -0.6308
vn -0.4547 0.6547 -0.6038
vn -0.0079 0.7060 -0.7082
vn -0.1630 0.7057 -0.6895
vn -0.3434 0.9080 0.2401
vn -0.5814 0.7959 0.1690
vn 0.1842 0.9278 0.3245
vn 0.0526 0.9487 0.3117
vn -0.0045 0.9167 -0.3996
vn -0.2278 0.9206 -0.3171
vn -0.4382 0.8724 -0.2165
vn -0.2429 0.3987 0.8843
vn -0.4430 0.4589 0.7701
vn -0.6180 0.4931 0.6122
vn 0.0586 0.7384 -0.6718
vn -0.1451 0.8085 -0.5703
vn -0.3406 0.8327 -0.4365
vn -0.3512 0.8316 -0.4301
vn -0.5360 0.7948 -0.2845
vn -0.6905 0.7129 -0.1227
vn 0.0827 0.9902 -0.1125
vn -0.1434 0.9722 -0.1851
vn -0.3614 0.8990 -0.2472
vn -0.3981 0.4686 -0.7886
vn -0.6035 0.3977 -0.6911
vn -0.7747 0.3042 -0.5544
vn -0.2705 0.7465 -0.6078
vn -0.4418 0.7786 -0.4455
vn -0.5880 0.7666 -0.2579
vn 0.3465 0.7640 0.5443
vn 0.1920 0.8898 0.4139
vn 0.0266 0.9652 0.2600
vn 0.2321 0.5276 0.8172
vn 0.0151 0.6200 0.7844
vn -0.2027 0.6773 0.7072
vn 0.1240 0.9498 -0.2871
vn -0.3120 0.8498 -0.4248
vn -0.4930 0.8544 -0.1643
vn -0.0749 0.9971 0.0097
vn -0.3986 0.7124 0.5776
vn -0.1415 0.9614 0.2360
vn 0.0251 0.9919 0.1246
vn 0.0380 0.9666 0.2533
vn -0.4355 0.8939 -0.1063
vn -0.4689 0.8799 0.0764
vn -0.0540 0.9596 -0.2762
vn -0.4050 0.8309 -0.3815
vn -0.2949 0.9472 -0.1253
vn -0.3317 0.8722 0.3593
vn -0.0697 0.9635 -0.2586
vn -0.3791 0.9245 0.0407
vn -0.5653 0.6097 -0.5555
usemtl garland
s 1
f 5/1/1 6/2/1 4/3/2 3/4/2
f 2/5/3 6/2/1 5/1/1 1/6/3
f 11/7/4 12/8/4 10/9/5 9/10/5
f 8/11/6 12/8/4 11/7/4 7/12/6
f 17/13/7 18/14/7 16/15/8 15/16/8
f 14/17/9 18/14/7 17/13/7 13/18/9
f 23/19/10 24/20/10 22/21/11 21/22/11
f 20/23/12 24/20/10 23/19/10 19/24/12
f 29/25/13 30/26/13 28/27/14 27/28/14
f 26/29/15 30/26/13 29/25/13 25/30/15
f 35/31/16 38/32/16 34/33/17 33/34/17
f 31/35/18 32/36/18 37/37/19 36/38/19
f 36/38/19 37/37/19 38/32/16 35/31/16
f 43/39/20 46/40/20 42/41/21 41/42/21
f 39/43/22 40/44/22 45/45/23 44/46/23
f 44/46/23 45/45/23 46/40/20 43/39/20
f 51/47/24 54/48/24 50/49/25 49/50/25
f 47/51/26 48/52/26 53/53/27 52/54/27
f 52/54/27 53/53/27 54/48/24 51/47/24
f 59/55/28 62/56/28 58/57/29 57/58/29
f 55/59/30 56/60/30 61/61/31 60/62/31
f 60/62/31 61/61/31 62/56/28 59/55/28
f 67/63/32 70/64/32 66/65/33 65/66/33
f 63/67/34 64/68/34 69/69/35 68/70/35
f 68/70/35 69/69/35 70/64/32 67/63/32
f 75/71/36 78/72/36 74/73/37 73/74/37
f 71/75/38 72/76/38 77/77/39 76/78/39
f 76/78/39 77/77/39 78/72/36 75/71/36
f 83/79/40 86/80/40 82/81/41 81/82/41
f 79/83/42 80/84/42 85/85/43 84/86/43
f 84/86/43 85/85/43 86/80/40 83/79/40
f 91/87/44 94/88/44 90/89/45 89/90/45
f 87/91/46 88/92/46 93/93/47 92/94/47
f 92/94/47 93/93/47 94/88/44 91/87/44
f 99/95/48 102/96/48 98/97/49 97/98/49
f 95/99/50 96/100/50 101/101/51 100/102/51
f 100/102/51 101/101/51 102/96/48 99/95/48
f 107/103/52 110/104/52 106/105/53 105/106/53
f 103/107/54 104/108/54 109/109/55 108/110/55
f 108/110/55 109/109/55 110/104/52 107/103/52
f 115/111/56 118/112/56 114/113/57 113/114/57
f 111/115/58 112/116/58 117/117/59 116/118/59
f 116/118/59 117/117/59 118/112/56 115/111/56
f 123/119/60 126/120/60 122/121/61 121/122/61
f 119/123/62 120/124/62 125/125/63 124/126/63
f 124/126/63 125/125/63 126/120/60 123/119/60
f 131/127/64 134/128/64 130/129/65 129/130/65
f 127/131/66 128/132/66 133/133/67 132/134/67
f 132/134/67 133/133/67 134/128/64 131/127/64
f 135/135/68 136/136/68 140/137/69 139/138/69
f 139/138/69 140/137/69 138/139/70 137/140/70
f 141/141/71 142/142/71 146/143/72 145/144/72
f 145/144/72 146/143/72 144/145/73 143/146/73
f 147/147/74 148/148/74 152/149/75 151/150/75
f 151/150/75 152/149/75 150/151/76 149/152/76
f 153/153/77 154/154/77 158/155/78 157/156/78
f 157/156/78 158/155/78 156/157/79 155/158/79
f 159/159/80 160/160/80 164/161/81 163/162/81
f 163/162/81 164/161/81 162/163/82 161/164/82
f 165/165/83 166/166/83 170/167/84 169/168/84
f 169/168/84 170/167/84 168/169/85 167/170/85
f 171/171/86 172/172/86 176/173/87 175/174/87
f 175/174/87 176/173/87 174/175/88 173/176/88
f 177/177/89 178/178/89 182/179/90 181/180/90
f 181/180/90 182/179/90 180/181/91 179/182/91
f 183/183/92 184/184/92 188/185/93 187/186/93
f 187/186/93 188/185/93 186/187/94 185/188/94
f 190/189/95 192/190/95 191/191/95 189/192/95
f 194/193/96 196/194/96 195/195/96 193/196/96
f 198/197/97 200/198/97 199/199/97 197/200/97
f 202/201/98 204/202/98 203/203/98 201/204/98
f 206/205/99 208/206/99 207/207/99 205/208/99
f 210/209/100 212/210/100 211/211/100 209/212/100
f 214/213/101 216/214/101 215/215/101 213/216/101
f 218/217/102 220/218/102 219/219/102 217/220/102
f 222/221/103 224/222/103 223/223/103 221/224/103
f 226/225/104 228/226/104 227/227/104 225/228/104
f 230/229/105 232/230/105 231/231/105 229/232/105
f 234/233/106 236/234/106 235/235/106 233/236/106
f 238/237/107 240/238/107 239/239/107 237/240/107
f 242/241/108 244/242/108 243/243/108 241/244/108
f 246/245/109 248/246/109 247/247/109 245/248/109
f 250/249/110 252/250/110 251/251/110 249/252/110
f 254/253/111 256/254/111 255/255/111 253/256/111
